HIERARCHY
ROOT mixamorig:Hips
{
	OFFSET 0.000000 97.439201 0.000000
	CHANNELS 6 Xposition Yposition Zposition Zrotation Yrotation Xrotation 
	JOINT mixamorig:Spine
	{
		OFFSET 0.000000 10.246803 -1.182900
		CHANNELS 3 Zrotation Yrotation Xrotation
		JOINT mixamorig:Spine1
		{
			OFFSET 0.000000 11.954597 -1.380086
			CHANNELS 3 Zrotation Yrotation Xrotation
			JOINT mixamorig:Spine2
			{
				OFFSET 0.000000 13.662361 -1.577237
				CHANNELS 3 Zrotation Yrotation Xrotation
				JOINT mixamorig:Neck
				{
					OFFSET 0.000000 15.370239 -1.774399
					CHANNELS 3 Zrotation Yrotation Xrotation
					JOINT mixamorig:Head
					{
						OFFSET 0.000000 6.121704 2.117600
						CHANNELS 3 Zrotation Yrotation Xrotation
						JOINT mixamorig:HeadTop_End
						{
							OFFSET 0.000000 23.480103 8.122100
							CHANNELS 3 Zrotation Yrotation Xrotation
							End Site
							{
								OFFSET 0.000000 0.000000 0.000000
							}
						}
					}
				}
				JOINT mixamorig:LeftShoulder
				{
					OFFSET 6.584100 13.564301 -1.766640
					CHANNELS 3 Zrotation Yrotation Xrotation
					JOINT mixamorig:LeftArm
					{
						OFFSET 13.322093 -3.531372 0.015528
						CHANNELS 3 Zrotation Yrotation Xrotation
						JOINT mixamorig:LeftForeArm
						{
							OFFSET 25.861839 0.000000 0.000001
							CHANNELS 3 Zrotation Yrotation Xrotation
							JOINT mixamorig:LeftHand
							{
								OFFSET 24.066311 0.000000 0.000001
								CHANNELS 3 Zrotation Yrotation Xrotation
								JOINT mixamorig:LeftHandThumb1
								{
									OFFSET 3.138794 -1.265854 2.647181
									CHANNELS 3 Zrotation Yrotation Xrotation
									JOINT mixamorig:LeftHandThumb2
									{
										OFFSET 2.662651 -1.537277 1.537284
										CHANNELS 3 Zrotation Yrotation Xrotation
										JOINT mixamorig:LeftHandThumb3
										{
											OFFSET 2.570145 -1.483871 1.483872
											CHANNELS 3 Zrotation Yrotation Xrotation
											JOINT mixamorig:LeftHandThumb4
											{
												OFFSET 2.200981 -1.270737 1.270736
												CHANNELS 3 Zrotation Yrotation Xrotation
												End Site
												{
													OFFSET 0.000000 0.000000 0.000000
												}
											}
										}
									}
								}
								JOINT mixamorig:LeftHandIndex1
								{
									OFFSET 10.405411 -0.300232 2.648106
									CHANNELS 3 Zrotation Yrotation Xrotation
									JOINT mixamorig:LeftHandIndex2
									{
										OFFSET 3.184044 0.000000 0.000000
										CHANNELS 3 Zrotation Yrotation Xrotation
										JOINT mixamorig:LeftHandIndex3
										{
											OFFSET 2.887520 0.000000 0.000000
											CHANNELS 3 Zrotation Yrotation Xrotation
											JOINT mixamorig:LeftHandIndex4
											{
												OFFSET 2.475807 0.000000 0.000000
												CHANNELS 3 Zrotation Yrotation Xrotation
												End Site
												{
													OFFSET 0.000000 0.000000 0.000000
												}
											}
										}
									}
								}
								JOINT mixamorig:LeftHandMiddle1
								{
									OFFSET 10.112617 0.000000 0.000000
									CHANNELS 3 Zrotation Yrotation Xrotation
									JOINT mixamorig:LeftHandMiddle2
									{
										OFFSET 3.478561 0.000000 0.000000
										CHANNELS 3 Zrotation Yrotation Xrotation
										JOINT mixamorig:LeftHandMiddle3
										{
											OFFSET 3.196815 0.000000 0.000000
											CHANNELS 3 Zrotation Yrotation Xrotation
											JOINT mixamorig:LeftHandMiddle4
											{
												OFFSET 2.838127 0.000000 0.000000
												CHANNELS 3 Zrotation Yrotation Xrotation
												End Site
												{
													OFFSET 0.000000 0.000000 0.000000
												}
											}
										}
									}
								}
								JOINT mixamorig:LeftHandRing1
								{
									OFFSET 9.766037 0.002869 -2.231968
									CHANNELS 3 Zrotation Yrotation Xrotation
									JOINT mixamorig:LeftHandRing2
									{
										OFFSET 2.912598 0.000000 0.000000
										CHANNELS 3 Zrotation Yrotation Xrotation
										JOINT mixamorig:LeftHandRing3
										{
											OFFSET 2.743797 0.000000 0.000000
											CHANNELS 3 Zrotation Yrotation Xrotation
											JOINT mixamorig:LeftHandRing4
											{
												OFFSET 2.426300 0.000000 0.000000
												CHANNELS 3 Zrotation Yrotation Xrotation
												End Site
												{
													OFFSET 0.000000 0.000000 0.000000
												}
											}
										}
									}
								}
								JOINT mixamorig:LeftHandPinky1
								{
									OFFSET 8.462975 -0.296494 -4.344542
									CHANNELS 3 Zrotation Yrotation Xrotation
									JOINT mixamorig:LeftHandPinky2
									{
										OFFSET 2.761932 0.000000 0.000000
										CHANNELS 3 Zrotation Yrotation Xrotation
										JOINT mixamorig:LeftHandPinky3
										{
											OFFSET 2.226311 0.000000 0.000000
											CHANNELS 3 Zrotation Yrotation Xrotation
											JOINT mixamorig:LeftHandPinky4
											{
												OFFSET 2.001915 0.000000 0.000000
												CHANNELS 3 Zrotation Yrotation Xrotation
												End Site
												{
													OFFSET 0.000000 0.000000 0.000000
												}
											}
										}
									}
								}
							}
						}
					}
				}
				JOINT mixamorig:RightShoulder
				{
					OFFSET -6.584100 13.564331 -1.782145
					CHANNELS 3 Zrotation Yrotation Xrotation
					JOINT mixamorig:RightArm
					{
						OFFSET -13.322087 -3.531387 -0.015528
						CHANNELS 3 Zrotation Yrotation Xrotation
						JOINT mixamorig:RightForeArm
						{
							OFFSET -25.995886 0.000000 -0.000000
							CHANNELS 3 Zrotation Yrotation Xrotation
							JOINT mixamorig:RightHand
							{
								OFFSET -23.930798 0.000000 -0.000000
								CHANNELS 3 Zrotation Yrotation Xrotation
								JOINT mixamorig:RightHandThumb1
								{
									OFFSET -3.103348 -1.214722 2.665987
									CHANNELS 3 Zrotation Yrotation Xrotation
									JOINT mixamorig:RightHandThumb2
									{
										OFFSET -2.644638 -1.526886 1.526883
										CHANNELS 3 Zrotation Yrotation Xrotation
										JOINT mixamorig:RightHandThumb3
										{
											OFFSET -2.548042 -1.471115 1.471114
											CHANNELS 3 Zrotation Yrotation Xrotation
											JOINT mixamorig:RightHandThumb4
											{
												OFFSET -2.086876 -1.204865 1.204859
												CHANNELS 3 Zrotation Yrotation Xrotation
												End Site
												{
													OFFSET 0.000000 0.000000 0.000000
												}
											}
										}
									}
								}
								JOINT mixamorig:RightHandIndex1
								{
									OFFSET -9.891205 -0.413467 2.629802
									CHANNELS 3 Zrotation Yrotation Xrotation
									JOINT mixamorig:RightHandIndex2
									{
										OFFSET -3.265656 0.000000 0.000000
										CHANNELS 3 Zrotation Yrotation Xrotation
										JOINT mixamorig:RightHandIndex3
										{
											OFFSET -3.106102 0.000000 0.000000
											CHANNELS 3 Zrotation Yrotation Xrotation
											JOINT mixamorig:RightHandIndex4
											{
												OFFSET -2.514259 0.000000 0.000000
												CHANNELS 3 Zrotation Yrotation Xrotation
												End Site
												{
													OFFSET 0.000000 0.000000 0.000000
												}
											}
										}
									}
								}
								JOINT mixamorig:RightHandMiddle1
								{
									OFFSET -10.108925 0.000000 0.000000
									CHANNELS 3 Zrotation Yrotation Xrotation
									JOINT mixamorig:RightHandMiddle2
									{
										OFFSET -3.489250 0.000000 0.000000
										CHANNELS 3 Zrotation Yrotation Xrotation
										JOINT mixamorig:RightHandMiddle3
										{
											OFFSET -3.236908 0.000000 0.000000
											CHANNELS 3 Zrotation Yrotation Xrotation
											JOINT mixamorig:RightHandMiddle4
											{
												OFFSET -2.756126 0.000000 0.000000
												CHANNELS 3 Zrotation Yrotation Xrotation
												End Site
												{
													OFFSET 0.000000 0.000000 0.000000
												}
											}
										}
									}
								}
								JOINT mixamorig:RightHandRing1
								{
									OFFSET -9.832733 -0.175018 -2.119855
									CHANNELS 3 Zrotation Yrotation Xrotation
									JOINT mixamorig:RightHandRing2
									{
										OFFSET -2.832802 0.000000 0.000000
										CHANNELS 3 Zrotation Yrotation Xrotation
										JOINT mixamorig:RightHandRing3
										{
											OFFSET -2.766335 0.000000 0.000000
											CHANNELS 3 Zrotation Yrotation Xrotation
											JOINT mixamorig:RightHandRing4
											{
												OFFSET -2.344864 0.000000 0.000000
												CHANNELS 3 Zrotation Yrotation Xrotation
												End Site
												{
													OFFSET 0.000000 0.000000 0.000000
												}
											}
										}
									}
								}
								JOINT mixamorig:RightHandPinky1
								{
									OFFSET -8.564178 -0.350037 -4.300325
									CHANNELS 3 Zrotation Yrotation Xrotation
									JOINT mixamorig:RightHandPinky2
									{
										OFFSET -2.646233 0.000000 0.000000
										CHANNELS 3 Zrotation Yrotation Xrotation
										JOINT mixamorig:RightHandPinky3
										{
											OFFSET -2.261864 0.000000 0.000000
											CHANNELS 3 Zrotation Yrotation Xrotation
											JOINT mixamorig:RightHandPinky4
											{
												OFFSET -1.954506 0.000000 0.000000
												CHANNELS 3 Zrotation Yrotation Xrotation
												End Site
												{
													OFFSET 0.000000 0.000000 0.000000
												}
											}
										}
									}
								}
							}
						}
					}
				}
			}
		}
	}
	JOINT mixamorig:LeftUpLeg
	{
		OFFSET 7.983700 -5.694298 -0.735200
		CHANNELS 3 Zrotation Yrotation Xrotation
		JOINT mixamorig:LeftLeg
		{
			OFFSET 1.208505 -42.761528 -3.138802
			CHANNELS 3 Zrotation Yrotation Xrotation
			JOINT mixamorig:LeftFoot
			{
				OFFSET -1.208506 -38.163300 -2.010041
				CHANNELS 3 Zrotation Yrotation Xrotation
				JOINT mixamorig:LeftToeBase
				{
					OFFSET 1.841840 -10.410353 14.836088
					CHANNELS 3 Zrotation Yrotation Xrotation
					JOINT mixamorig:LeftToe_End
					{
						OFFSET 0.820596 -0.120798 6.988551
						CHANNELS 3 Zrotation Yrotation Xrotation
						End Site
						{
							OFFSET 0.000000 0.000000 0.000000
						}
					}
				}
			}
		}
	}
	JOINT mixamorig:RightUpLeg
	{
		OFFSET -7.983700 -5.694298 -0.831100
		CHANNELS 3 Zrotation Yrotation Xrotation
		JOINT mixamorig:RightLeg
		{
			OFFSET -1.208402 -42.761509 -2.372174
			CHANNELS 3 Zrotation Yrotation Xrotation
			JOINT mixamorig:RightFoot
			{
				OFFSET 1.208405 -38.162746 -2.730814
				CHANNELS 3 Zrotation Yrotation Xrotation
				JOINT mixamorig:RightToeBase
				{
					OFFSET -1.842189 -10.413905 14.893202
					CHANNELS 3 Zrotation Yrotation Xrotation
					JOINT mixamorig:RightToe_End
					{
						OFFSET -0.820738 -0.122444 6.961618
						CHANNELS 3 Zrotation Yrotation Xrotation
						End Site
						{
							OFFSET 0.000000 0.000000 0.000000
						}
					}
				}
			}
		}
	}
}
MOTION
Frames: 4
Frame Time: 0.016667
0.208162 88.921989 0.099524 -3.547860 18.661917 -5.464027 8.914572 3.553043 16.624621 2.315043 1.134426 3.260462 2.289055 1.089493 3.284591 1.626631 -2.902503 2.214820 21.568190 -29.564451 -17.874058 -0.000000 0.000001 -0.000001 -17.092080 -11.673301 3.606112 -63.458886 6.695959 -12.441691 0.000017 -24.355447 0.000001 -0.200497 13.770370 -17.264611 6.429201 4.893256 4.893873 9.924163 6.672634 16.419785 14.425188 -16.215684 -20.803543 0.000002 -0.000000 0.000001 -26.310528 -1.127749 -0.694605 -22.880129 2.281663 -0.461763 -5.932406 0.606812 -0.031453 0.000000 -0.000001 0.000000 -37.894246 3.759221 -2.630154 -20.350854 2.041044 -0.366379 -15.481640 1.566894 -0.212992 -0.000001 0.000001 -0.000000 -42.476691 7.225709 -3.079342 -25.999407 2.572106 -0.593893 -22.824042 2.276374 -0.459555 -0.000001 -0.000000 -0.000001 -46.733076 3.565896 -3.773120 -20.452909 2.050839 -0.370025 -27.095849 2.672403 -0.644065 -0.000001 -0.000001 -0.000001 22.681085 16.680773 5.855877 32.231870 27.325958 -7.814731 0.000018 26.094471 -0.000004 -3.738391 18.594021 -5.992005 -9.351377 -3.823785 0.782343 -12.036091 -19.343833 19.701857 -13.676905 9.332157 -20.697170 0.000001 -0.000003 -0.000001 5.654609 1.650623 -0.124946 24.934523 -1.966953 -0.434914 5.444996 -0.442892 -0.021061 0.000002 0.000001 -0.000001 18.631156 -0.664813 -0.922285 25.714672 -2.024321 -0.462095 10.527296 -0.852685 -0.078562 0.000000 0.000002 0.000002 27.026465 -0.179507 -1.494549 13.218407 -1.067137 -0.123663 22.825087 -1.809999 -0.365393 0.000001 0.000001 0.000000 23.128230 -0.173714 -2.507074 30.462664 -2.364963 -0.644007 15.665462 -1.260101 -0.173361 0.000000 0.000002 0.000000 1.946449 6.210471 -47.510298 8.459713 5.343682 54.753743 -3.621563 9.618919 -3.854205 0.000045 0.000019 -8.722104 0.000002 0.000004 0.000001 -1.289508 -8.968994 -33.987550 -2.275062 -10.973120 36.990999 -1.475232 -4.594309 1.989504 0.000001 -0.000000 0.623502 0.000000 0.000000 0.000000 
0.272302 89.284081 -1.696053 -2.804533 16.038552 -4.041355 8.106736 3.366464 16.788732 2.156484 1.025493 3.264907 2.130867 0.984180 3.287459 1.520505 -2.551721 2.093296 19.774443 -26.259321 -16.622268 -0.000001 0.000000 0.000000 -17.074454 -12.002507 3.615385 -64.534120 8.837812 -11.703675 0.000005 -22.986703 0.000006 -4.224527 14.940441 -6.267481 6.429202 4.893258 4.893871 9.924160 6.672630 16.419785 14.372046 -15.692894 -20.563253 0.000001 0.000004 -0.000002 -26.684401 -1.080956 -0.692766 -23.185805 2.310433 -0.474030 -6.185456 0.632613 -0.034167 -0.000002 0.000001 0.000001 -38.369089 3.790771 -2.675772 -20.726954 2.077096 -0.379885 -15.786982 1.596996 -0.221427 0.000000 0.000000 -0.000001 -43.097686 7.249537 -3.141584 -26.473368 2.615587 -0.615341 -23.199926 2.311763 -0.474597 0.000000 0.000000 -0.000001 -47.565221 3.607823 -3.854153 -21.068110 2.109712 -0.392355 -27.569446 2.715419 -0.666332 -0.000000 0.000001 -0.000002 22.122114 16.130051 5.629119 33.930103 30.401215 -8.279324 0.000002 28.309852 0.000006 -2.408925 20.240138 -6.019033 -9.202288 -3.794420 0.744164 -12.036088 -19.343831 19.701855 -13.647527 9.088751 -20.581690 0.000002 0.000001 0.000001 6.034602 1.610149 -0.116872 25.315954 -1.995051 -0.448098 5.825981 -0.473775 -0.024110 0.000001 0.000001 -0.000001 19.110055 -0.702139 -0.953103 26.097014 -2.052304 -0.475693 10.837011 -0.877474 -0.083216 -0.000001 -0.000002 0.000001 27.664496 -0.225183 -1.541305 13.700505 -1.105346 -0.132795 23.206133 -1.838524 -0.377526 -0.000000 0.000001 -0.000002 24.072699 -0.231671 -2.547336 31.088535 -2.408672 -0.670083 16.145367 -1.297677 -0.184063 -0.000001 0.000001 -0.000001 2.374222 7.211092 -46.901901 8.885481 4.576805 59.743598 -4.501545 9.500541 -4.597790 0.000051 -0.000000 -8.601142 0.000000 0.000000 0.000000 -1.046453 -8.895804 -35.321248 -1.353038 -10.432847 34.267144 -2.655021 -3.128858 2.296663 -0.000000 -0.000004 0.149674 0.000000 -0.000001 0.000000 
0.356585 89.688820 -3.510627 -1.996857 13.091949 -2.696689 7.287705 3.194284 16.948586 1.989541 0.877497 3.278258 1.969034 0.841400 3.298782 1.402303 -2.183465 1.959278 16.795083 -22.344362 -15.670972 0.000000 0.000001 0.000000 -17.028045 -12.389606 3.615376 -66.256100 11.239542 -10.703996 0.000004 -21.870925 0.000004 -8.850587 16.302145 5.415973 6.429201 4.893258 4.893874 9.924161 6.672634 16.419788 14.238152 -14.245126 -19.907397 -0.000002 0.000003 -0.000001 -27.748765 -0.948875 -0.688537 -24.060721 2.392433 -0.509918 -6.912951 0.706666 -0.042681 -0.000001 0.000001 -0.000000 -39.711331 3.877907 -2.805878 -21.797444 2.179177 -0.419644 -16.660945 1.682923 -0.246431 -0.000001 -0.000000 -0.000002 -44.836810 7.312684 -3.317551 -27.812994 2.737485 -0.677886 -24.269781 2.411933 -0.518695 -0.000001 0.000000 0.000002 -49.866381 3.717177 -4.080685 -22.790939 2.273241 -0.458237 -28.908111 2.835989 -0.731162 0.000001 -0.000000 0.000006 21.493744 15.570315 5.297292 36.299957 33.077671 -7.750422 0.000008 31.017071 0.000019 -0.956364 21.831939 -5.902650 -8.778184 -3.710661 0.637128 -12.036093 -19.343832 19.701855 -13.566618 8.395195 -20.255070 0.000000 0.000006 0.000002 7.116184 1.495655 -0.095020 26.401613 -2.074536 -0.486648 6.910350 -0.561565 -0.033912 0.000001 0.000000 0.000000 20.463606 -0.806234 -1.041603 27.185275 -2.131414 -0.515403 11.723434 -0.948292 -0.097359 0.000000 0.000001 0.000000 29.451225 -0.350306 -1.674280 15.062990 -1.212810 -0.160348 24.290695 -1.919304 -0.413098 0.000000 -0.000003 -0.000001 26.684220 -0.386123 -2.663426 32.841212 -2.529585 -0.745578 17.501709 -1.403392 -0.216037 0.000000 0.000000 -0.000002 2.356699 8.448338 -45.236878 9.170299 3.958278 63.619898 -5.668314 10.018788 -5.607671 0.000060 0.000001 -9.230075 0.000000 0.000003 0.000000 -0.769856 -8.630443 -36.393693 -0.324844 -9.669813 31.144150 -3.556304 -1.681557 2.573463 0.000001 0.000000 -0.350903 0.000000 -0.000001 0.000000 
0.461815 90.054832 -5.318523 -1.243107 9.982007 -1.370394 6.455539 3.018171 17.105234 1.816141 0.697988 3.300105 1.804721 0.668284 3.318235 1.278948 -1.805437 1.818306 13.065795 -17.915325 -15.163549 -0.000001 0.000000 0.000001 -16.929280 -12.829666 3.613918 -68.460734 13.548307 -9.790814 -0.000017 -20.979599 -0.000001 -13.830190 17.805905 16.661901 6.429206 4.893252 4.893875 9.924163 6.672636 16.419788 14.071206 -12.051789 -18.938501 -0.000002 0.000001 -0.000003 -29.417678 -0.745255 -0.684768 -25.441856 2.520742 -0.569098 -8.067513 0.823937 -0.058112 -0.000001 0.000001 0.000001 -41.797617 4.007198 -3.011351 -23.475797 2.337670 -0.485778 -18.040488 1.817726 -0.288581 -0.000001 0.000000 0.000002 -47.508396 7.399219 -3.592279 -29.895119 2.923917 -0.780728 -25.947187 2.567296 -0.591554 0.000002 -0.000001 -0.000002 -53.344046 3.863907 -4.428962 -25.437477 2.520313 -0.568932 -30.988742 3.020258 -0.837457 -0.000002 0.000002 -0.000001 20.836378 15.005751 4.872086 39.127513 35.492870 -6.270492 -0.000010 34.004049 0.000006 0.550174 23.363458 -5.602150 -8.114100 -3.578960 0.474284 -12.036089 -19.343834 19.701852 -13.447623 7.305739 -19.749051 0.000000 -0.000003 -0.000003 8.811835 1.318210 -0.063886 28.103683 -2.197611 -0.550117 8.610251 -0.698751 -0.052602 0.000000 0.000002 0.000000 22.567264 -0.963752 -1.183097 28.891413 -2.253925 -0.580696 13.122588 -1.059548 -0.121868 0.000000 0.000001 0.000001 32.195859 -0.534278 -1.884054 17.180309 -1.378413 -0.208225 25.991049 -2.044566 -0.471920 0.000000 0.000000 -0.000001 30.630352 -0.603020 -2.851198 35.533467 -2.710614 -0.868679 19.609504 -1.566045 -0.270656 -0.000001 0.000002 0.000002 1.898526 9.911378 -42.779794 9.069891 3.392459 66.326033 -6.755750 10.606220 -6.692043 0.000050 -0.000009 -7.975847 0.000000 0.000005 0.000000 -0.529229 -8.220884 -37.430267 0.603427 -8.880805 27.892727 -3.013717 -0.211369 3.386051 0.000002 0.000001 -0.791962 0.000000 0.000000 0.000001 
